<?xml version="1.0" standalone="no"?>
<!DOCTYPE svg PUBLIC "-//W3C//DTD SVG 20010904//EN"
 "http://www.w3.org/TR/2001/REC-SVG-20010904/DTD/svg10.dtd">
<svg version="1.0" xmlns="http://www.w3.org/2000/svg"
 width="200.000000pt" height="200.000000pt" viewBox="0 0 200.000000 200.000000"
 preserveAspectRatio="xMidYMid meet">
<metadata>
Created by potrace 1.11, written by Peter Selinger 2001-2013
</metadata>
<g transform="translate(0.000000,200.000000) scale(0.100000,-0.100000)"
fill="#000000" stroke="none">
<path d="M310 1665 l0 -95 105 0 105 0 0 95 0 95 -105 0 -105 0 0 -95z"/>
<path d="M647 1753 c-4 -3 -7 -44 -7 -90 l0 -83 245 0 245 0 0 -640 0 -640
100 0 100 0 0 640 0 640 240 0 240 0 0 90 0 90 -578 0 c-318 0 -582 -3 -585
-7z"/>
<path d="M320 845 l0 -545 95 0 95 0 0 545 0 545 -95 0 -95 0 0 -545z"/>
</g>
</svg>
